<svg id="Capa_1" data-name="Capa 1" xmlns="http://www.w3.org/2000/svg" width="8.31cm" height="4.96cm"
     viewBox="0 0 235.61 140.69">
    <defs>
        <style>
            .cls-1 {
            fill: #1ab3ee;
            }

            .cls-2 {
            fill: #3362f4;
            }
        </style>
    </defs>
    <path class="cls-1"
          d="M49.74,118.53A42.89,42.89,0,0,1,33.6,101a52.3,52.3,0,0,1,0-46.29A42.87,42.87,0,0,1,49.74,37.13q10.73-6.69,25.91-6.69t25.91,6.69A42.87,42.87,0,0,1,117.7,54.68a52.3,52.3,0,0,1,0,46.29,42.89,42.89,0,0,1-16.14,17.56q-10.74,6.69-25.91,6.69T49.74,118.53Zm39.79-18.12a23.92,23.92,0,0,0,8.76-9.77,28.91,28.91,0,0,0,2.92-12.81A29.29,29.29,0,0,0,98.29,65a23.37,23.37,0,0,0-8.76-9.77A25.55,25.55,0,0,0,75.59,51.5a25.24,25.24,0,0,0-13.88,3.69A23.59,23.59,0,0,0,53,64.9a29.82,29.82,0,0,0,0,25.74,24.06,24.06,0,0,0,8.7,9.77,24.94,24.94,0,0,0,13.88,3.75A25.24,25.24,0,0,0,89.53,100.41Z"
          transform="translate(-28.2 -29.96)"/>
    <path class="cls-1"
          d="M119,143.6a16.06,16.06,0,0,1,4.13,11.11,16.3,16.3,0,0,1-4.22,11.22q-4.25,4.73-11.71,4.72t-11.71-4.72a16.26,16.26,0,0,1-4.23-11.22,15.87,15.87,0,0,1,4.23-11.11Q99.69,139,107.17,139,114.84,139,119,143.6Z"
          transform="translate(-28.2 -29.96)"/>
    <path class="cls-2"
          d="M231.83,39.9A64.45,64.45,0,0,1,255.73,66a77.08,77.08,0,0,1,0,68.67,64.42,64.42,0,0,1-23.9,26.08q-15.84,9.93-38.28,9.93H151.64V30h41.91Q216,30,231.83,39.9ZM179.78,58.1v84.41h13.77q13,0,22.34-6A38.41,38.41,0,0,0,230,120.87a47.14,47.14,0,0,0,0-41.12A38.44,38.44,0,0,0,215.89,64.1q-9.36-6-22.34-6Z"
          transform="translate(-28.2 -29.96)"/>
</svg>
